<svg version="1.1" viewBox="0.0 0.0 500.0 500.0" fill="none" stroke="none" stroke-linecap="square" stroke-miterlimit="10" xmlns:xlink="http://www.w3.org/1999/xlink" xmlns="http://www.w3.org/2000/svg"><clipPath id="g304e845fdec_1_0.0"><path d="m0 0l500.0 0l0 500.0l-500.0 0l0 -500.0z" clip-rule="nonzero"/></clipPath><g clip-path="url(#g304e845fdec_1_0.0)"><path fill="#000000" fill-opacity="0.0" d="m0 0l500.0 0l0 500.0l-500.0 0z" fill-rule="evenodd"/><g filter="url(#shadowFilter-g304e845fdec_1_0.1)"><use xlink:href="#g304e845fdec_1_0.1" transform="matrix(1.0 0.0 0.0 1.0 0.0 2.0)"/></g><defs><filter id="shadowFilter-g304e845fdec_1_0.1" filterUnits="userSpaceOnUse"><feGaussianBlur in="SourceAlpha" stdDeviation="2.0" result="blur"/><feComponentTransfer in="blur" color-interpolation-filters="sRGB"><feFuncR type="linear" slope="0" intercept="0.0"/><feFuncG type="linear" slope="0" intercept="0.0"/><feFuncB type="linear" slope="0" intercept="0.0"/><feFuncA type="linear" slope="0.5" intercept="0"/></feComponentTransfer></filter></defs><g id="g304e845fdec_1_0.1"><path fill="#000000" fill-opacity="0.0" d="m-0.007874016 344.5223l500.0 0l0 116.346466l-500.0 0z" fill-rule="evenodd"/><path fill="#f3e5f5" d="m82.70668 430.96292q-5.515625 0 -10.59375 -1.3125q-5.078125 -1.328125 -8.046875 -3.328125l4.171875 -8.953125q2.953125 1.828125 6.984375 3.0q4.046875 1.15625 7.96875 1.15625q4.328125 0 6.125 -1.03125q1.796875 -1.046875 1.796875 -2.890625q0 -1.515625 -1.40625 -2.28125q-1.390625 -0.765625 -3.71875 -1.15625q-2.3125 -0.40625 -5.078125 -0.796875q-2.75 -0.40625 -5.5625 -1.078125q-2.796875 -0.6875 -5.125 -2.046875q-2.3125 -1.359375 -3.71875 -3.671875q-1.390625 -2.328125 -1.390625 -6.015625q0 -4.078125 2.359375 -7.1875q2.359375 -3.125 6.828125 -4.921875q4.484375 -1.8125 10.734375 -1.8125q4.390625 0 8.953125 0.96875q4.5625 0.953125 7.609375 2.796875l-4.171875 8.875q-3.109375 -1.828125 -6.28125 -2.5q-3.15625 -0.6875 -6.109375 -0.6875q-4.15625 0 -6.078125 1.125q-1.921875 1.109375 -1.921875 2.875q0 1.59375 1.390625 2.390625q1.40625 0.796875 3.71875 1.28125q2.328125 0.484375 5.078125 0.84375q2.765625 0.359375 5.5625 1.078125q2.8125 0.71875 5.09375 2.046875q2.28125 1.3125 3.71875 3.59375q1.4375 2.28125 1.4375 5.953125q0 4.0 -2.40625 7.09375q-2.390625 3.078125 -6.921875 4.84375q-4.515625 1.75 -11.0 1.75zm37.039337 -0.640625l-15.515625 -43.046875l11.765625 0l12.875 37.046875l-5.59375 0l13.4375 -37.046875l10.5625 0l13.03125 37.046875l-5.59375 0l13.28125 -37.046875l11.03125 0l-15.59375 43.046875l-12.078125 0l-11.4375 -31.765625l3.671875 0l-11.84375 31.765625l-12.0 0zm65.131805 0l0 -43.046875l12.46875 0l0 43.046875l-12.46875 0zm6.234375 -49.046875q-3.4375 0 -5.609375 -2.0q-2.15625 -2.0 -2.15625 -4.953125q0 -2.953125 2.15625 -4.953125q2.171875 -2.0 5.609375 -2.0q3.4375 0 5.59375 1.875q2.171875 1.875 2.171875 4.84375q0 3.109375 -2.125 5.15625q-2.125 2.03125 -5.640625 2.03125zm43.283096 49.6875q-5.4375 0 -9.53125 -2.390625q-4.078125 -2.40625 -6.359375 -7.328125q-2.265625 -4.921875 -2.265625 -12.4375q0 -7.609375 2.15625 -12.484375q2.15625 -4.875 6.234375 -7.28125q4.078125 -2.40625 9.765625 -2.40625q6.078125 0 10.90625 2.765625q4.84375 2.765625 7.6875 7.734375q2.84375 4.953125 2.84375 11.671875q0 6.796875 -2.84375 11.765625q-2.84375 4.953125 -7.6875 7.671875q-4.828125 2.71875 -10.90625 2.71875zm-25.4375 14.875l0 -58.5625l11.921875 0l0 8.8125l-0.25 12.796875l0.796875 12.71875l0 24.234375l-12.46875 0zm23.28125 -25.109375q3.109375 0 5.546875 -1.4375q2.453125 -1.453125 3.921875 -4.125q1.484375 -2.6875 1.484375 -6.359375q0 -3.765625 -1.484375 -6.40625q-1.46875 -2.640625 -3.921875 -4.078125q-2.4375 -1.4375 -5.546875 -1.4375q-3.125 0 -5.609375 1.4375q-2.484375 1.4375 -3.921875 4.078125q-1.4375 2.640625 -1.4375 6.40625q0 3.671875 1.4375 6.359375q1.4375 2.671875 3.921875 4.125q2.484375 1.4375 5.609375 1.4375zm53.278076 10.234375q-7.359375 0 -12.921875 -2.875q-5.5625 -2.890625 -8.609375 -7.890625q-3.03125 -5.0 -3.03125 -11.390625q0 -6.484375 3.0 -11.484375q3.0 -5.0 8.1875 -7.84375q5.203125 -2.84375 11.765625 -2.84375q6.328125 0 11.40625 2.6875q5.078125 2.6875 8.03125 7.6875q2.96875 5.0 2.96875 11.953125q0 0.71875 -0.078125 1.640625q-0.078125 0.921875 -0.15625 1.71875l-34.96875 0l0 -7.28125l28.40625 0l-4.8125 2.15625q0 -3.359375 -1.359375 -5.828125q-1.359375 -2.484375 -3.765625 -3.875q-2.390625 -1.40625 -5.59375 -1.40625q-3.1875 0 -5.640625 1.40625q-2.4375 1.390625 -3.796875 3.90625q-1.359375 2.515625 -1.359375 5.96875l0 1.90625q0 3.53125 1.5625 6.21875q1.5625 2.671875 4.390625 4.078125q2.84375 1.390625 6.6875 1.390625q3.4375 0 6.03125 -1.03125q2.609375 -1.046875 4.765625 -3.125l6.640625 7.203125q-2.953125 3.359375 -7.4375 5.15625q-4.484375 1.796875 -10.3125 1.796875z" fill-rule="nonzero"/><path fill="#ad9bf6" d="m314.6377 430.3223l0 -59.359375l12.46875 0l0 59.359375l-12.46875 0zm50.47058 0l0 -8.40625l-0.796875 -1.828125l0 -15.046875q0 -4.0 -2.4375 -6.234375q-2.4375 -2.25 -7.484375 -2.25q-3.4375 0 -6.765625 1.09375q-3.3125 1.078125 -5.625 2.90625l-4.484375 -8.71875q3.515625 -2.46875 8.46875 -3.828125q4.96875 -1.375 10.09375 -1.375q9.828125 0 15.265625 4.640625q5.453125 4.640625 5.453125 14.484375l0 24.5625l-11.6875 0zm-13.109375 0.640625q-5.046875 0 -8.65625 -1.71875q-3.59375 -1.71875 -5.515625 -4.671875q-1.921875 -2.96875 -1.921875 -6.65625q0 -3.828125 1.875 -6.703125q1.890625 -2.890625 5.96875 -4.53125q4.078125 -1.640625 10.640625 -1.640625l11.4375 0l0 7.28125l-10.078125 0q-4.390625 0 -6.03125 1.4375q-1.640625 1.4375 -1.640625 3.609375q0 2.390625 1.875 3.796875q1.875 1.390625 5.15625 1.390625q3.125 0 5.59375 -1.46875q2.484375 -1.484375 3.609375 -4.359375l1.921875 5.75q-1.359375 4.15625 -4.96875 6.328125q-3.59375 2.15625 -9.265625 2.15625zm61.516235 0q-5.6875 0 -9.765625 -2.390625q-4.078125 -2.40625 -6.234375 -7.328125q-2.15625 -4.921875 -2.15625 -12.4375q0 -7.609375 2.265625 -12.484375q2.28125 -4.875 6.359375 -7.28125q4.09375 -2.40625 9.53125 -2.40625q6.078125 0 10.90625 2.734375q4.84375 2.71875 7.6875 7.6875q2.84375 4.953125 2.84375 11.75q0 6.71875 -2.84375 11.6875q-2.84375 4.953125 -7.6875 7.71875q-4.828125 2.75 -10.90625 2.75zm-25.4375 -0.640625l0 -59.359375l12.46875 0l0 25.046875l-0.796875 12.71875l0.25 12.796875l0 8.796875l-11.921875 0zm23.28125 -9.59375q3.109375 0 5.546875 -1.4375q2.453125 -1.453125 3.921875 -4.125q1.484375 -2.6875 1.484375 -6.359375q0 -3.765625 -1.484375 -6.40625q-1.46875 -2.640625 -3.921875 -4.078125q-2.4375 -1.4375 -5.546875 -1.4375q-3.125 0 -5.609375 1.4375q-2.484375 1.4375 -3.921875 4.078125q-1.4375 2.640625 -1.4375 6.40625q0 3.671875 1.4375 6.359375q1.4375 2.671875 3.921875 4.125q2.484375 1.4375 5.609375 1.4375z" fill-rule="nonzero"/></g><g filter="url(#shadowFilter-g304e845fdec_1_0.2)"><use xlink:href="#g304e845fdec_1_0.2" transform="matrix(1.0 0.0 0.0 1.0 0.0 2.0)"/></g><defs><filter id="shadowFilter-g304e845fdec_1_0.2" filterUnits="userSpaceOnUse"><feGaussianBlur in="SourceAlpha" stdDeviation="2.0" result="blur"/><feComponentTransfer in="blur" color-interpolation-filters="sRGB"><feFuncR type="linear" slope="0" intercept="0.0"/><feFuncG type="linear" slope="0" intercept="0.0"/><feFuncB type="linear" slope="0" intercept="0.0"/><feFuncA type="linear" slope="0.5" intercept="0"/></feComponentTransfer></filter></defs><g id="g304e845fdec_1_0.2"><path fill="#000000" fill-opacity="0.0" d="m0.007874016 -39.131233l314.96063 0l0 471.874l-314.96063 0z" fill-rule="evenodd"/><path fill="#f3e5f5" d="m155.25586 332.75314q-31.374992 0 -60.124992 -8.390625q-28.734375 -8.40625 -46.28125 -21.859375l20.53125 -45.546875q16.796875 11.953125 39.75 19.609375q22.968742 7.65625 46.484367 7.65625q17.921875 0 28.9375 -3.546875q11.015625 -3.546875 16.234375 -9.890625q5.234375 -6.359375 5.234375 -14.5625q0 -10.45314 -8.21875 -16.60939q-8.203125 -6.171875 -21.65625 -10.09375q-13.4375 -3.921875 -29.671875 -7.46875q-16.234375 -3.546875 -32.484367 -8.765625q-16.234375 -5.234375 -29.671875 -13.4375q-13.4375 -8.21875 -21.84375 -21.65625q-8.390625 -13.4375 -8.390625 -34.34375q0 -22.406242 12.125 -40.874992q12.140625 -18.484375 36.59375 -29.5q24.453125 -11.015625 61.406242 -11.015625q24.640625 0 48.53125 5.796875q23.890625 5.78125 42.1875 17.359375l-18.671875 45.906242q-18.28125 -10.453117 -36.578125 -15.484367q-18.296875 -5.046875 -35.84375 -5.046875q-17.546875 0 -28.75 4.109375q-11.203117 4.109375 -16.062492 10.640625q-4.84375 6.5312424 -4.84375 15.124992q0 10.078125 8.21875 16.234375q8.218742 6.15625 21.656242 9.890625q13.4375 3.734375 29.671875 7.46875q16.25 3.734375 32.484375 8.59375q16.234375 4.84375 29.671875 13.0625q13.453125 8.21875 21.84375 21.65625q8.40625 13.4375 8.40625 33.96875q0 22.031265 -12.328125 40.32814q-12.3125 18.28125 -36.765625 29.484375q-24.453125 11.203125 -61.78125 11.203125z" fill-rule="nonzero"/></g><g filter="url(#shadowFilter-g304e845fdec_1_0.3)"><use xlink:href="#g304e845fdec_1_0.3" transform="matrix(1.0 0.0 0.0 1.0 0.0 2.0)"/></g><defs><filter id="shadowFilter-g304e845fdec_1_0.3" filterUnits="userSpaceOnUse"><feGaussianBlur in="SourceAlpha" stdDeviation="2.0" result="blur"/><feComponentTransfer in="blur" color-interpolation-filters="sRGB"><feFuncR type="linear" slope="0" intercept="0.0"/><feFuncG type="linear" slope="0" intercept="0.0"/><feFuncB type="linear" slope="0" intercept="0.0"/><feFuncA type="linear" slope="0.5" intercept="0"/></feComponentTransfer></filter></defs><g id="g304e845fdec_1_0.3"><path fill="#000000" fill-opacity="0.0" d="m185.04724 -39.131233l314.96063 0l0 471.874l-314.96063 0z" fill-rule="evenodd"/><path fill="#ad9bf6" d="m260.7668 328.26877l0 -261.32812l60.484375 0l0 212.04688l131.03125 0l0 49.28125l-191.51562 0z" fill-rule="nonzero"/></g></g></svg>